<?xml version="1.0" encoding="UTF-8" standalone="no"?>
<!-- Created with Inkscape (http://www.inkscape.org/) -->

<svg
   xmlns:dc="http://purl.org/dc/elements/1.1/"
   xmlns:cc="http://creativecommons.org/ns#"
   xmlns:rdf="http://www.w3.org/1999/02/22-rdf-syntax-ns#"
   xmlns:svg="http://www.w3.org/2000/svg"
   xmlns="http://www.w3.org/2000/svg"
   xmlns:xlink="http://www.w3.org/1999/xlink"
   xmlns:sodipodi="http://sodipodi.sourceforge.net/DTD/sodipodi-0.dtd"
   xmlns:inkscape="http://www.inkscape.org/namespaces/inkscape"
   width="140"
   height="50"
   id="svg2"
   version="1.1"
   inkscape:version="0.47 r22583"
   sodipodi:docname="play_status.svg"
   inkscape:export-filename="/home/kvance/projects/nectroid/gfx/play_status.png"
   inkscape:export-xdpi="90"
   inkscape:export-ydpi="90">
  <defs
     id="defs4">
    <linearGradient
       id="linearGradient3780">
      <stop
         style="stop-color:#696969;stop-opacity:1;"
         offset="0"
         id="stop3782" />
      <stop
         style="stop-color:#0a0a0a;stop-opacity:1;"
         offset="1"
         id="stop3784" />
    </linearGradient>
    <inkscape:perspective
       sodipodi:type="inkscape:persp3d"
       inkscape:vp_x="0 : 526.18109 : 1"
       inkscape:vp_y="0 : 1000 : 0"
       inkscape:vp_z="744.09448 : 526.18109 : 1"
       inkscape:persp3d-origin="372.04724 : 350.78739 : 1"
       id="perspective10" />
    <inkscape:perspective
       id="perspective2894"
       inkscape:persp3d-origin="0.5 : 0.33333333 : 1"
       inkscape:vp_z="1 : 0.5 : 1"
       inkscape:vp_y="0 : 1000 : 0"
       inkscape:vp_x="0 : 0.5 : 1"
       sodipodi:type="inkscape:persp3d" />
    <linearGradient
       inkscape:collect="always"
       xlink:href="#linearGradient3780"
       id="linearGradient3892"
       gradientUnits="userSpaceOnUse"
       x1="47.001442"
       y1="1019.5566"
       x2="47.003002"
       y2="1047.1151" />
    <linearGradient
       inkscape:collect="always"
       xlink:href="#linearGradient3780"
       id="linearGradient3894"
       gradientUnits="userSpaceOnUse"
       x1="47.001442"
       y1="1019.5566"
       x2="47.003002"
       y2="1047.1151" />
    <linearGradient
       inkscape:collect="always"
       xlink:href="#linearGradient3780"
       id="linearGradient3896"
       gradientUnits="userSpaceOnUse"
       x1="47.001442"
       y1="1019.5566"
       x2="47.003002"
       y2="1047.1151" />
    <linearGradient
       inkscape:collect="always"
       xlink:href="#linearGradient3780"
       id="linearGradient3972"
       x1="41.001846"
       y1="1029.8082"
       x2="40.995651"
       y2="1048.8116"
       gradientUnits="userSpaceOnUse" />
    <linearGradient
       inkscape:collect="always"
       xlink:href="#linearGradient3780"
       id="linearGradient4045"
       gradientUnits="userSpaceOnUse"
       x1="41.001846"
       y1="1029.8082"
       x2="40.995651"
       y2="1048.8116" />
    <linearGradient
       inkscape:collect="always"
       xlink:href="#linearGradient3780"
       id="linearGradient4079"
       gradientUnits="userSpaceOnUse"
       x1="41.001846"
       y1="1029.8082"
       x2="40.995651"
       y2="1048.8116" />
    <linearGradient
       inkscape:collect="always"
       xlink:href="#linearGradient3780"
       id="linearGradient4113"
       gradientUnits="userSpaceOnUse"
       x1="41.001846"
       y1="1029.8082"
       x2="40.995651"
       y2="1048.8116" />
    <linearGradient
       inkscape:collect="always"
       xlink:href="#linearGradient3780"
       id="linearGradient4122"
       gradientUnits="userSpaceOnUse"
       x1="41.001846"
       y1="1029.8082"
       x2="40.995651"
       y2="1048.8116" />
    <linearGradient
       inkscape:collect="always"
       xlink:href="#linearGradient3780"
       id="linearGradient4131"
       gradientUnits="userSpaceOnUse"
       x1="41.001846"
       y1="1029.8082"
       x2="40.995651"
       y2="1048.8116" />
    <linearGradient
       inkscape:collect="always"
       xlink:href="#linearGradient3780"
       id="linearGradient4138"
       gradientUnits="userSpaceOnUse"
       x1="41.001846"
       y1="1029.8082"
       x2="40.995651"
       y2="1048.8116" />
    <linearGradient
       inkscape:collect="always"
       xlink:href="#linearGradient3780"
       id="linearGradient4147"
       gradientUnits="userSpaceOnUse"
       x1="41.001846"
       y1="1029.8082"
       x2="40.995651"
       y2="1048.8116" />
    <linearGradient
       inkscape:collect="always"
       xlink:href="#linearGradient3780"
       id="linearGradient4154"
       gradientUnits="userSpaceOnUse"
       x1="41.001846"
       y1="1029.8082"
       x2="40.995651"
       y2="1048.8116" />
    <linearGradient
       inkscape:collect="always"
       xlink:href="#linearGradient3780"
       id="linearGradient4161"
       gradientUnits="userSpaceOnUse"
       x1="41.001846"
       y1="1029.8082"
       x2="40.995651"
       y2="1048.8116" />
    <linearGradient
       inkscape:collect="always"
       xlink:href="#linearGradient3780"
       id="linearGradient4163"
       gradientUnits="userSpaceOnUse"
       x1="41.001846"
       y1="1029.8082"
       x2="40.995651"
       y2="1048.8116" />
    <linearGradient
       inkscape:collect="always"
       xlink:href="#linearGradient3780"
       id="linearGradient4165"
       gradientUnits="userSpaceOnUse"
       x1="41.001846"
       y1="1029.8082"
       x2="40.995651"
       y2="1048.8116" />
  </defs>
  <sodipodi:namedview
     id="base"
     pagecolor="#ffffff"
     bordercolor="#666666"
     borderopacity="1.0"
     inkscape:pageopacity="0.0"
     inkscape:pageshadow="2"
     inkscape:zoom="1"
     inkscape:cx="45.200303"
     inkscape:cy="25.391624"
     inkscape:document-units="px"
     inkscape:current-layer="layer1"
     showgrid="true"
     inkscape:window-width="799"
     inkscape:window-height="646"
     inkscape:window-x="2635"
     inkscape:window-y="38"
     inkscape:window-maximized="0"
     inkscape:snap-global="true"
     inkscape:snap-bbox="true"
     showguides="true"
     inkscape:guide-bbox="true"
     inkscape:snap-nodes="false"
     inkscape:bbox-nodes="false">
    <inkscape:grid
       type="xygrid"
       id="grid3689"
       empspacing="6"
       visible="true"
       enabled="true"
       snapvisiblegridlinesonly="true"
       originx="-1px" />
  </sodipodi:namedview>
  <metadata
     id="metadata7">
    <rdf:RDF>
      <cc:Work
         rdf:about="">
        <dc:format>image/svg+xml</dc:format>
        <dc:type
           rdf:resource="http://purl.org/dc/dcmitype/StillImage" />
        <dc:title></dc:title>
      </cc:Work>
    </rdf:RDF>
  </metadata>
  <g
     inkscape:label="Layer 1"
     inkscape:groupmode="layer"
     id="layer1"
     transform="translate(0,-1002.3622)">
    <image
       y="1026.1595"
       x="0.98169416"
       id="image2896"
       height="25"
       width="25"
       xlink:href="file:///home/kvance/projects/nectroid/gfx/nect25.png" />
    <g
       id="g3685"
       transform="translate(1,-0.99998262)">
      <path
         inkscape:label="#sphereish"
         id="nectroid"
         d="m 8.96875,1029.3622 c -0.7965681,0 -1.5899445,0.067 -2.375,0.062 -0.7733072,-0.1851 -2.3021564,0.6168 -1.28125,1.375 0.9423861,0.3455 2.0263734,-0.056 2.9375,0.4375 0.7158593,0.3583 1.4080737,0.7183 2.03125,1.2187 -4.7469415,0.783 -8.3125,4.161 -8.3125,8.2188 0,4.6375 4.6529903,8.4062 10.40625,8.4062 5.75326,0 10.40625,-3.7687 10.40625,-8.4062 0,-3.5632 -2.739608,-6.593 -6.625,-7.8125 0.626409,-0.402 1.306222,-0.6882 2.0625,-0.625 1.78641,-0.019 3.007413,1.6544 4.71875,1.9062 1.048405,0.2455 0.697947,-1.0916 0.25,-1.5312 -0.380802,-0.7835 -1.111615,-1.3192 -1.9375,-1.5625 -0.834525,-0.3201 -1.642903,-0.7463 -2.5625,-0.7813 -1.232891,0.023 -2.509964,0.1693 -3.65625,0.6563 -0.73637,0.04 -1.153385,1.0598 -1.875,0.8437 -0.375201,-0.8406 -0.950413,-1.6643 -1.84375,-2 -0.74502,-0.3304 -1.5471819,-0.4085 -2.34375,-0.4062 z"
         style="color:#000000;fill:#000000;fill-opacity:1;stroke:none;stroke-width:1;marker:none;visibility:visible;display:inline;overflow:visible;enable-background:accumulate" />
      <rect
         inkscape:label="#rect3674"
         y="1026.8622"
         x="-0.5"
         height="26"
         width="26"
         id="border25"
         style="color:#000000;fill:none;stroke:#000000;stroke-width:1;stroke-miterlimit:4;stroke-opacity:1;stroke-dasharray:none;stroke-dashoffset:0;marker:none;visibility:visible;display:inline;overflow:visible;enable-background:accumulate" />
    </g>
    <rect
       inkscape:label="#rect3674"
       y="1026.8616"
       x="28.499289"
       height="25.001423"
       width="25.001423"
       id="rect3962"
       style="color:#000000;fill:none;stroke:#000000;stroke-width:0.99857754;stroke-miterlimit:4;stroke-opacity:1;stroke-dasharray:none;stroke-dashoffset:0;marker:none;visibility:visible;display:inline;overflow:visible;enable-background:accumulate" />
    <g
       id="g4006">
      <path
         style="color:#000000;fill:url(#linearGradient4161);fill-opacity:1;stroke:none;stroke-width:1;marker:none;visibility:visible;display:inline;overflow:visible;enable-background:accumulate"
         d="m 37.356958,1029.8159 c -0.767066,0 -1.531058,0.064 -2.287037,0.06 -0.744666,-0.1782 -2.216891,0.594 -1.233796,1.3241 0.907483,0.3327 1.951322,-0.054 2.828703,0.4213 0.689346,0.345 1.355923,0.6917 1.956019,1.1735 -4.571129,0.754 -8.00463,4.0069 -8.00463,7.9144 0,4.4658 4.480658,8.0949 10.020834,8.0949 5.540176,0 10.020833,-3.6291 10.020833,-8.0949 0,-3.4312 -2.638141,-6.3488 -6.37963,-7.5231 0.603209,-0.3871 1.257844,-0.6627 1.986111,-0.6019 1.720247,-0.018 2.896028,1.5932 4.543982,1.8356 1.009575,0.2364 0.672097,-1.0511 0.240741,-1.4744 -0.366699,-0.7545 -1.070444,-1.2704 -1.865741,-1.5047 -0.803617,-0.3082 -1.582055,-0.7186 -2.467593,-0.7523 -1.187228,0.022 -2.417002,0.163 -3.520833,0.632 -0.709097,0.038 -1.110667,1.0205 -1.805556,0.8124 -0.361304,-0.8095 -0.915212,-1.6027 -1.775463,-1.9259 -0.717426,-0.3182 -1.489878,-0.3934 -2.256944,-0.3912 z"
         id="path3960"
         inkscape:label="#sphereish" />
      <path
         sodipodi:nodetypes="ccccsccccccccccccccsccccccsc"
         id="path3974"
         transform="translate(0,978.3622)"
         d="m 37.34375,51.457702 c -0.767066,0 -1.525271,0.0463 -2.28125,0.0423 -0.615992,-0.147408 -1.721176,0.377285 -1.53125,0.96875 0.197166,-0.323418 0.924785,-0.490216 1.40625,-0.375 0.755979,0.004 1.639184,0.375 2.40625,0.375 0.767066,-0.0022 1.563824,0.0568 2.28125,0.375 0.860251,0.3232 1.169946,1.253 1.53125,2.0625 0.694889,0.2081 1.322153,-0.8995 2.03125,-0.9375 1.103831,-0.469 2.344022,-0.63425 3.53125,-0.65625 0.885538,0.0337 1.665133,0.47305 2.46875,0.78125 0.827786,0.491083 1.575707,1.264811 2.21875,1.84375 0.188633,-0.342073 -0.108163,-1.112563 -0.34375,-1.34375 -0.366699,-0.7545 -1.057606,-1.276749 -1.852903,-1.511049 -0.803617,-0.3082 -1.605309,-0.736501 -2.490847,-0.770201 -1.187228,0.022 -2.427419,0.18725 -3.53125,0.65625 -0.709097,0.038 -1.08999,0.998503 -1.784879,0.790403 -0.361304,-0.8095 -0.91737,-1.592203 -1.777621,-1.915403 -0.717426,-0.3182 -1.514184,-0.388249 -2.28125,-0.386049 z m 1.25,2.979798 c -4.555806,0.763464 -7.96875,4.007495 -7.96875,7.90625 0,0.227496 0.0084,0.464716 0.03125,0.6875 0.310174,-3.811124 6.014765,-7.768212 7.96875,-8.5625 -0.01269,-0.01019 -0.0185,-0.02201 -0.03125,-0.03125 z m 5.75,0.40625 c -0.02224,0.01141 -0.0404,0.01707 -0.0625,0.03125 2.365068,1.950469 5.910781,4.68322 6.34375,7.84375 0.0069,-0.122782 0.03125,-0.250865 0.03125,-0.375 0,-3.410537 -2.606806,-6.311946 -6.3125,-7.5 z"
         style="color:#000000;fill:#000000;fill-opacity:0.74901961;stroke:none;stroke-width:1;marker:none;visibility:visible;display:inline;overflow:visible;enable-background:accumulate" />
      <path
         sodipodi:nodetypes="ccccccccccscccccscsssc"
         id="path3983"
         transform="translate(0,978.3622)"
         d="m 34.921875,52.085938 c -0.63875,-0.121711 -0.948025,0.14308 -1.390625,0.195312 -0.02877,0.183079 0.04821,0.366223 0.3125,0.5625 0.907483,0.3327 1.935119,-0.06905 2.8125,0.40625 0.676238,0.33844 1.34635,0.688605 1.9375,1.15625 0.02047,-0.0034 0.04199,0.0034 0.0625,0 -0.178221,-1.4662 -1.185654,-1.951625 -1.984375,-2.015625 -0.692299,-0.213487 -1.293546,-0.332422 -1.75,-0.304687 z m 11.625,1.234373 C 45.818608,53.259511 44.446959,53.5035 44.25,54.8125 c 0.0095,0.003 0.02174,-0.003 0.03125,0 0.603209,-0.3871 1.240483,-0.65455 1.96875,-0.59375 1.720247,-0.018 2.914546,1.60135 4.5625,1.84375 0.149635,0.06861 0.530639,0.04466 0.601563,-0.14844 -1.222727,-0.950608 -2.04431,-2.421439 -4.867188,-2.593749 z M 50.625,61.75 c -0.258601,4.280079 -4.626577,7.6875 -10,7.6875 -5.321984,0 -9.634818,-3.340049 -9.96875,-7.5625 -0.01128,0.157129 -0.03125,0.309317 -0.03125,0.46875 0,4.4658 4.459824,8.09375 10,8.09375 5.540176,0 10.03125,-3.62795 10.03125,-8.09375 0,-0.203754 -0.01297,-0.393875 -0.03125,-0.59375 z"
         style="color:#000000;fill:#ffffff;fill-opacity:0.74901961;stroke:none;stroke-width:1;marker:none;visibility:visible;display:inline;overflow:visible;enable-background:accumulate" />
    </g>
    <path
       sodipodi:type="star"
       style="color:#000000;fill:#ffffff;fill-opacity:1;stroke:none;stroke-width:1;marker:none;visibility:visible;display:inline;overflow:visible;enable-background:accumulate"
       id="path3994"
       sodipodi:sides="3"
       sodipodi:cx="41"
       sodipodi:cy="61.984375"
       sodipodi:r1="6.00002"
       sodipodi:r2="3.00001"
       sodipodi:arg1="0.0026041672"
       sodipodi:arg2="1.0498017"
       inkscape:flatsided="true"
       inkscape:rounded="0"
       inkscape:randomized="0"
       d="M 47,62 37.986468,67.172715 38.013532,56.78041 47,62 z"
       transform="matrix(1.1094431,0,0,0.7698004,-5.1438253,992.65262)" />
    <rect
       style="color:#000000;fill:none;stroke:#000000;stroke-width:1.00907671;stroke-miterlimit:4;stroke-opacity:1;stroke-dasharray:none;stroke-dashoffset:0;marker:none;visibility:visible;display:inline;overflow:visible;enable-background:accumulate"
       id="rect4029"
       width="32.990925"
       height="32.990925"
       x="55.504539"
       y="1018.8668"
       inkscape:label="#rect3674" />
    <g
       id="g4033"
       transform="matrix(1.3076923,0,0,1.3076923,18.384616,-323.80384)">
      <path
         inkscape:label="#sphereish"
         id="path4035"
         d="m 37.356958,1029.8159 c -0.767066,0 -1.531058,0.064 -2.287037,0.06 -0.744666,-0.1782 -2.216891,0.594 -1.233796,1.3241 0.907483,0.3327 1.951322,-0.054 2.828703,0.4213 0.689346,0.345 1.355923,0.6917 1.956019,1.1735 -4.571129,0.754 -8.00463,4.0069 -8.00463,7.9144 0,4.4658 4.480658,8.0949 10.020834,8.0949 5.540176,0 10.020833,-3.6291 10.020833,-8.0949 0,-3.4312 -2.638141,-6.3488 -6.37963,-7.5231 0.603209,-0.3871 1.257844,-0.6627 1.986111,-0.6019 1.720247,-0.018 2.896028,1.5932 4.543982,1.8356 1.009575,0.2364 0.672097,-1.0511 0.240741,-1.4744 -0.366699,-0.7545 -1.070444,-1.2704 -1.865741,-1.5047 -0.803617,-0.3082 -1.582055,-0.7186 -2.467593,-0.7523 -1.187228,0.022 -2.417002,0.163 -3.520833,0.632 -0.709097,0.038 -1.110667,1.0205 -1.805556,0.8124 -0.361304,-0.8095 -0.915212,-1.6027 -1.775463,-1.9259 -0.717426,-0.3182 -1.489878,-0.3934 -2.256944,-0.3912 z"
         style="color:#000000;fill:url(#linearGradient4163);fill-opacity:1;stroke:none;stroke-width:1;marker:none;visibility:visible;display:inline;overflow:visible;enable-background:accumulate" />
      <path
         style="color:#000000;fill:#000000;fill-opacity:0.74901961;stroke:none;stroke-width:1;marker:none;visibility:visible;display:inline;overflow:visible;enable-background:accumulate"
         d="m 37.34375,51.457702 c -0.767066,0 -1.525271,0.0463 -2.28125,0.0423 -0.615992,-0.147408 -1.721176,0.377285 -1.53125,0.96875 0.197166,-0.323418 0.924785,-0.490216 1.40625,-0.375 0.755979,0.004 1.639184,0.375 2.40625,0.375 0.767066,-0.0022 1.563824,0.0568 2.28125,0.375 0.860251,0.3232 1.169946,1.253 1.53125,2.0625 0.694889,0.2081 1.322153,-0.8995 2.03125,-0.9375 1.103831,-0.469 2.344022,-0.63425 3.53125,-0.65625 0.885538,0.0337 1.665133,0.47305 2.46875,0.78125 0.827786,0.491083 1.575707,1.264811 2.21875,1.84375 0.188633,-0.342073 -0.108163,-1.112563 -0.34375,-1.34375 -0.366699,-0.7545 -1.057606,-1.276749 -1.852903,-1.511049 -0.803617,-0.3082 -1.605309,-0.736501 -2.490847,-0.770201 -1.187228,0.022 -2.427419,0.18725 -3.53125,0.65625 -0.709097,0.038 -1.08999,0.998503 -1.784879,0.790403 -0.361304,-0.8095 -0.91737,-1.592203 -1.777621,-1.915403 -0.717426,-0.3182 -1.514184,-0.388249 -2.28125,-0.386049 z m 1.25,2.979798 c -4.555806,0.763464 -7.96875,4.007495 -7.96875,7.90625 0,0.227496 0.0084,0.464716 0.03125,0.6875 0.310174,-3.811124 6.014765,-7.768212 7.96875,-8.5625 -0.01269,-0.01019 -0.0185,-0.02201 -0.03125,-0.03125 z m 5.75,0.40625 c -0.02224,0.01141 -0.0404,0.01707 -0.0625,0.03125 2.365068,1.950469 5.910781,4.68322 6.34375,7.84375 0.0069,-0.122782 0.03125,-0.250865 0.03125,-0.375 0,-3.410537 -2.606806,-6.311946 -6.3125,-7.5 z"
         transform="translate(0,978.3622)"
         id="path4037"
         sodipodi:nodetypes="ccccsccccccccccccccsccccccsc" />
      <path
         style="color:#000000;fill:#ffffff;fill-opacity:0.74901961;stroke:none;stroke-width:1;marker:none;visibility:visible;display:inline;overflow:visible;enable-background:accumulate"
         d="m 34.921875,52.085938 c -0.63875,-0.121711 -0.948025,0.14308 -1.390625,0.195312 -0.02877,0.183079 0.04821,0.366223 0.3125,0.5625 0.907483,0.3327 1.935119,-0.06905 2.8125,0.40625 0.676238,0.33844 1.34635,0.688605 1.9375,1.15625 0.02047,-0.0034 0.04199,0.0034 0.0625,0 -0.178221,-1.4662 -1.185654,-1.951625 -1.984375,-2.015625 -0.692299,-0.213487 -1.293546,-0.332422 -1.75,-0.304687 z m 11.625,1.234373 C 45.818608,53.259511 44.446959,53.5035 44.25,54.8125 c 0.0095,0.003 0.02174,-0.003 0.03125,0 0.603209,-0.3871 1.240483,-0.65455 1.96875,-0.59375 1.720247,-0.018 2.914546,1.60135 4.5625,1.84375 0.149635,0.06861 0.530639,0.04466 0.601563,-0.14844 -1.222727,-0.950608 -2.04431,-2.421439 -4.867188,-2.593749 z M 50.625,61.75 c -0.258601,4.280079 -4.626577,7.6875 -10,7.6875 -5.321984,0 -9.634818,-3.340049 -9.96875,-7.5625 -0.01128,0.157129 -0.03125,0.309317 -0.03125,0.46875 0,4.4658 4.459824,8.09375 10,8.09375 5.540176,0 10.03125,-3.62795 10.03125,-8.09375 0,-0.203754 -0.01297,-0.393875 -0.03125,-0.59375 z"
         transform="translate(0,978.3622)"
         id="path4039"
         sodipodi:nodetypes="ccccccccccscccccscsssc" />
    </g>
    <path
       transform="matrix(1.4508102,0,0,1.0584752,11.888844,971.26155)"
       d="M 47,62 37.986468,67.172715 38.013532,56.78041 47,62 z"
       inkscape:randomized="0"
       inkscape:rounded="0"
       inkscape:flatsided="true"
       sodipodi:arg2="1.0498017"
       sodipodi:arg1="0.0026041672"
       sodipodi:r2="3.00001"
       sodipodi:r1="6.00002"
       sodipodi:cy="61.984375"
       sodipodi:cx="41"
       sodipodi:sides="3"
       id="path4041"
       style="color:#000000;fill:#ffffff;fill-opacity:1;stroke:none;stroke-width:1;marker:none;visibility:visible;display:inline;overflow:visible;enable-background:accumulate"
       sodipodi:type="star" />
    <rect
       inkscape:label="#rect3674"
       y="1002.8671"
       x="90.50489"
       height="48.990227"
       width="48.990227"
       id="rect4099"
       style="color:#000000;fill:none;stroke:#000000;stroke-width:1.00977337;stroke-miterlimit:4;stroke-opacity:1;stroke-dasharray:none;stroke-dashoffset:0;marker:none;visibility:visible;display:inline;overflow:visible;enable-background:accumulate" />
    <g
       id="g4103"
       transform="matrix(1.9230769,0,0,1.9230769,36.153849,-971.41143)">
      <path
         style="color:#000000;fill:url(#linearGradient4165);fill-opacity:1;stroke:none;stroke-width:1;marker:none;visibility:visible;display:inline;overflow:visible;enable-background:accumulate"
         d="m 37.356958,1029.8159 c -0.767066,0 -1.531058,0.064 -2.287037,0.06 -0.744666,-0.1782 -2.216891,0.594 -1.233796,1.3241 0.907483,0.3327 1.951322,-0.054 2.828703,0.4213 0.689346,0.345 1.355923,0.6917 1.956019,1.1735 -4.571129,0.754 -8.00463,4.0069 -8.00463,7.9144 0,4.4658 4.480658,8.0949 10.020834,8.0949 5.540176,0 10.020833,-3.6291 10.020833,-8.0949 0,-3.4312 -2.638141,-6.3488 -6.37963,-7.5231 0.603209,-0.3871 1.257844,-0.6627 1.986111,-0.6019 1.720247,-0.018 2.896028,1.5932 4.543982,1.8356 1.009575,0.2364 0.672097,-1.0511 0.240741,-1.4744 -0.366699,-0.7545 -1.070444,-1.2704 -1.865741,-1.5047 -0.803617,-0.3082 -1.582055,-0.7186 -2.467593,-0.7523 -1.187228,0.022 -2.417002,0.163 -3.520833,0.632 -0.709097,0.038 -1.110667,1.0205 -1.805556,0.8124 -0.361304,-0.8095 -0.915212,-1.6027 -1.775463,-1.9259 -0.717426,-0.3182 -1.489878,-0.3934 -2.256944,-0.3912 z"
         id="path4105"
         inkscape:label="#sphereish" />
      <path
         sodipodi:nodetypes="ccccsccccccccccccccsccccccsc"
         id="path4107"
         transform="translate(0,978.3622)"
         d="m 37.34375,51.457702 c -0.767066,0 -1.525271,0.0463 -2.28125,0.0423 -0.615992,-0.147408 -1.721176,0.377285 -1.53125,0.96875 0.197166,-0.323418 0.924785,-0.490216 1.40625,-0.375 0.755979,0.004 1.639184,0.375 2.40625,0.375 0.767066,-0.0022 1.563824,0.0568 2.28125,0.375 0.860251,0.3232 1.169946,1.253 1.53125,2.0625 0.694889,0.2081 1.322153,-0.8995 2.03125,-0.9375 1.103831,-0.469 2.344022,-0.63425 3.53125,-0.65625 0.885538,0.0337 1.665133,0.47305 2.46875,0.78125 0.827786,0.491083 1.575707,1.264811 2.21875,1.84375 0.188633,-0.342073 -0.108163,-1.112563 -0.34375,-1.34375 -0.366699,-0.7545 -1.057606,-1.276749 -1.852903,-1.511049 -0.803617,-0.3082 -1.605309,-0.736501 -2.490847,-0.770201 -1.187228,0.022 -2.427419,0.18725 -3.53125,0.65625 -0.709097,0.038 -1.08999,0.998503 -1.784879,0.790403 -0.361304,-0.8095 -0.91737,-1.592203 -1.777621,-1.915403 -0.717426,-0.3182 -1.514184,-0.388249 -2.28125,-0.386049 z m 1.25,2.979798 c -4.555806,0.763464 -7.96875,4.007495 -7.96875,7.90625 0,0.227496 0.0084,0.464716 0.03125,0.6875 0.310174,-3.811124 6.014765,-7.768212 7.96875,-8.5625 -0.01269,-0.01019 -0.0185,-0.02201 -0.03125,-0.03125 z m 5.75,0.40625 c -0.02224,0.01141 -0.0404,0.01707 -0.0625,0.03125 2.365068,1.950469 5.910781,4.68322 6.34375,7.84375 0.0069,-0.122782 0.03125,-0.250865 0.03125,-0.375 0,-3.410537 -2.606806,-6.311946 -6.3125,-7.5 z"
         style="color:#000000;fill:#000000;fill-opacity:0.74901961;stroke:none;stroke-width:1;marker:none;visibility:visible;display:inline;overflow:visible;enable-background:accumulate" />
      <path
         sodipodi:nodetypes="ccccccccccscccccscsssc"
         id="path4109"
         transform="translate(0,978.3622)"
         d="m 34.921875,52.085938 c -0.63875,-0.121711 -0.948025,0.14308 -1.390625,0.195312 -0.02877,0.183079 0.04821,0.366223 0.3125,0.5625 0.907483,0.3327 1.935119,-0.06905 2.8125,0.40625 0.676238,0.33844 1.34635,0.688605 1.9375,1.15625 0.02047,-0.0034 0.04199,0.0034 0.0625,0 -0.178221,-1.4662 -1.185654,-1.951625 -1.984375,-2.015625 -0.692299,-0.213487 -1.293546,-0.332422 -1.75,-0.304687 z m 11.625,1.234373 C 45.818608,53.259511 44.446959,53.5035 44.25,54.8125 c 0.0095,0.003 0.02174,-0.003 0.03125,0 0.603209,-0.3871 1.240483,-0.65455 1.96875,-0.59375 1.720247,-0.018 2.914546,1.60135 4.5625,1.84375 0.149635,0.06861 0.530639,0.04466 0.601563,-0.14844 -1.222727,-0.950608 -2.04431,-2.421439 -4.867188,-2.593749 z M 50.625,61.75 c -0.258601,4.280079 -4.626577,7.6875 -10,7.6875 -5.321984,0 -9.634818,-3.340049 -9.96875,-7.5625 -0.01128,0.157129 -0.03125,0.309317 -0.03125,0.46875 0,4.4658 4.459824,8.09375 10,8.09375 5.540176,0 10.03125,-3.62795 10.03125,-8.09375 0,-0.203754 -0.01297,-0.393875 -0.03125,-0.59375 z"
         style="color:#000000;fill:#ffffff;fill-opacity:0.74901961;stroke:none;stroke-width:1;marker:none;visibility:visible;display:inline;overflow:visible;enable-background:accumulate" />
    </g>
    <path
       sodipodi:type="star"
       style="color:#000000;fill:#ffffff;fill-opacity:1;stroke:none;stroke-width:1;marker:none;visibility:visible;display:inline;overflow:visible;enable-background:accumulate"
       id="path4111"
       sodipodi:sides="3"
       sodipodi:cx="41"
       sodipodi:cy="61.984375"
       sodipodi:r1="6.00002"
       sodipodi:r2="3.00001"
       sodipodi:arg1="0.0026041672"
       sodipodi:arg2="1.0498017"
       inkscape:flatsided="true"
       inkscape:rounded="0"
       inkscape:randomized="0"
       d="M 47,62 37.986468,67.172715 38.013532,56.78041 47,62 z"
       transform="matrix(2.1335444,0,0,1.5396004,25.954183,933.94306)" />
  </g>
</svg>
